<svg id="email" xmlns="http://www.w3.org/2000/svg" viewBox="0 0 248.63 248.63"><defs><style>.cls-1{fill:none;stroke:#066;stroke-linecap:round;stroke-miterlimit:10;stroke-width:8px;}.cls-2{fill:#066;}</style></defs><title>email</title><rect id="rect" class="cls-1" x="4" y="4" width="240.63" height="240.63" rx="53.46" ry="53.46"/><path id="line" class="cls-2" d="M223.54,58.39a4,4,0,0,0-5.58-.93l-92.87,66.33L32.22,57.46A4,4,0,0,0,27.57,64l95.19,68a4,4,0,0,0,.49.29l0,0a3.94,3.94,0,0,0,.79.29l.18,0a4,4,0,0,0,.83.1h0a4,4,0,0,0,.82-.1l.18,0a4,4,0,0,0,.78-.29l.05,0a4,4,0,0,0,.48-.29l95.19-68A4,4,0,0,0,223.54,58.39Z" transform="translate(-1.04 -1.37)"/></svg>