<svg id="facebook" class="svg" xmlns="http://www.w3.org/2000/svg" viewBox="0 0 250.05 250.05">
    <!-- <title>Facebook</title> -->
    <rect id="fb_bg" class="fb-cls-1" x="2.45" y="1.82" width="246" height="246" rx="55.5" ry="55.5"/>
    <rect class="fb-cls-2 rect2" x="2.82" y="2.82" width="244.4" height="244.4" rx="47.79" ry="47.79"/>
    <path class="fb-cls-2 fb" d="M910.43,298.88c.53,1.6,1.5,3.19,1.52,4.79.15,9-.05,17.92.13,26.87.07,3.61-1.48,4.58-4.76,4.49-5.28-.15-10.57-.13-15.86,0-8.4.19-11.21,3.16-11.22,11.6,0,6.28,0,12.55,0,19.41h25.44c6.38,0,6.84.78,5.94,7.24-1.21,8.7-2.26,17.43-3,26.18-.32,3.68-1.54,5.21-5.37,5.1-7.45-.21-14.91-.06-23-.06,0,2.15,0,3.85,0,5.55q0,40.31,0,80.62c0,5.74-.52,6.25-6.32,6.26-10.28,0-20.56-.12-30.84.06-4.24.08-5.64-1.56-5.62-5.73.12-27,.06-54,.06-81.06,0-1.75,0-3.49,0-6.15H819.89c-7.14,0-7.14,0-7.14-6.93,0-8.66.14-17.33-.06-26-.09-3.78,1.11-5.3,5-5.16,6.73.24,13.47.07,21,.07,0-7.94.83-15.62-.16-23.06-2.84-21.41,12.36-37.64,31.63-42.15,3.11-.73,6.26-1.3,9.39-1.94Z" transform="translate(-702.55 -250.18)"/>
</svg>