<svg id="linkedin" class="svg" xmlns="http://www.w3.org/2000/svg" viewBox="0 0 252.05 252.05">
    <!-- <title>Linkedin</title> -->
    <rect id="ld_bg" class="ld-cls-1" x="3.3" y="2.82" width="246" height="246" rx="55.5" ry="55.5"/>
    <rect class="ld-cls-2 rect2" x="2.82" y="2.82" width="246.4" height="246.4" rx="47.79" ry="47.79"/>
    <path class="ld-cls-2 ld" d="M742.82,310.7c.33-.2.29-.54.32-.85a20.08,20.08,0,0,1,18.6-18.55,20.27,20.27,0,0,1,11.37,2.24,20,20,0,0,1,10,12.1,18.91,18.91,0,0,1,.86,7.4,20.4,20.4,0,0,1-18.57,19,20.33,20.33,0,0,1-20.26-11.29,19.48,19.48,0,0,1-1.95-7.18c0-.34,0-.7-.32-.94Z" transform="translate(-701.7 -249.18)"/>
    <path class="ld-cls-2 ld" d="M837.09,362.39c.17-.22.35-.43.5-.66a40.51,40.51,0,0,1,5.62-6.69,37.08,37.08,0,0,1,17.85-9.41,38,38,0,0,1,6.76-.91c2.25-.08,4.51-.19,6.76-.09a52.43,52.43,0,0,1,11.65,1.88,33.69,33.69,0,0,1,10.69,4.93,31,31,0,0,1,9.72,11.42,51.83,51.83,0,0,1,4.25,12.4,45.9,45.9,0,0,1,1.06,7c.17,2.54.32,5.08.43,7.63.16,3.52.32,7,.4,10.57.07,2.82,0,5.64,0,8.46q0,25.08,0,50.15c0,1.32-.1,1.42-1.41,1.42h-29c-1.23,0-2.45,0-3.68,0-1,0-1.27-.28-1.29-1.26,0-1.3,0-2.6,0-3.9q0-18.53,0-37.06c0-6.4,0-12.8,0-19.19a39.06,39.06,0,0,0-1.27-10.39,21.67,21.67,0,0,0-3.21-7.05,13.79,13.79,0,0,0-8.89-5.53,25.9,25.9,0,0,0-11.37.31,16.45,16.45,0,0,0-11.53,10,32.37,32.37,0,0,0-2.18,8.21,71.79,71.79,0,0,0-.58,10q0,26.8,0,53.61c0,.44,0,.88,0,1.32s-.31.82-.9.85c-.24,0-.49,0-.74,0H804.8c-.24,0-.49,0-.73,0a1,1,0,0,1-1-1c0-.32,0-.64,0-1,0-1.89,0-3.77,0-5.66q0-33.2,0-66.4,0-18.49,0-37c0-.34,0-.69,0-1a1,1,0,0,1,1.05-1.09,5.78,5.78,0,0,1,.59,0h31.11c.74,0,1.1.36,1.11,1.09,0,1.35,0,2.7,0,4q0,3,0,6c0,1.05,0,2.11,0,3.16,0,.23,0,.47,0,.7Z" transform="translate(-701.7 -249.18)"/>
    <path class="ld-cls-2 ld" d="M745.82,403.86q0-27.32,0-54.64c0-.29,0-.59,0-.88,0-.67.28-.9,1-.95.2,0,.39,0,.59,0h32.13c1.51,0,1.78.28,1.78,1.82q0,47.21,0,94.42,0,7.57,0,15.15a5.73,5.73,0,0,1-.1,1,.87.87,0,0,1-.88.74c-.37,0-.73,0-1.1,0H747.45c-1.4,0-1.63-.24-1.63-1.61q0-14.89,0-29.78Q745.82,416.51,745.82,403.86Z" transform="translate(-701.7 -249.18)"/>
</svg>