<svg id="up" xmlns="http://www.w3.org/2000/svg" viewBox="0 0 33 17.69">
<defs>
<style>.cls-1-up{fill:#001d2b;}</style>
</defs>
<!-- <title>up</title> -->
<path class="cls-1-up" d="M667.86,393H669l13.34-13.34a1.19,1.19,0,0,1,1.68,0L697.35,393h1.13a1.19,1.19,0,0,0,.84-2L684,375.66a1.19,1.19,0,0,0-1.68,0L667,391A1.19,1.19,0,0,0,667.86,393Z" transform="translate(-666.67 -375.31)"/><path class="cls-1-up" d="M694.05,393a1.56,1.56,0,0,0,1.1-2.66l-10.88-10.88a1.56,1.56,0,0,0-2.2,0l-10.88,10.88a1.56,1.56,0,0,0,1.1,2.66" transform="translate(-666.67 -375.31)"/></svg>